<svg width="512" height="512" viewBox="0 0 512 512" fill="none" xmlns="http://www.w3.org/2000/svg">
<path d="M432 365.464C450.721 372.083 466.929 384.344 478.391 400.559C489.853 416.773 496.005 436.143 496 456V496H16V456C15.9946 436.143 22.1466 416.773 33.6087 400.559C45.0708 384.344 61.2789 372.083 80 365.464" fill="#2D4D83"/>
<path d="M193.2 296C171.504 261.334 159.999 221.263 160 180.368V152L213.496 116.336C225.561 108.29 239.738 103.997 254.24 104C270.918 104.001 287.099 98.3242 300.12 87.904L320 72L338.568 99.848C347.328 112.99 352.001 128.43 352 144.224V180.368C352.002 221.265 340.494 261.336 318.792 296" fill="#FADFB2"/>
<path d="M168.384 240.224C162.821 220.759 159.999 200.613 160 180.368V176H149.6C143.871 176 138.377 178.276 134.326 182.326C130.276 186.377 128 191.871 128 197.6C128 200.841 128.729 204.04 130.133 206.96C131.537 209.881 133.581 212.448 136.112 214.472L168.384 240.208V240.224ZM344 240L375.888 214.488C378.421 212.463 380.466 209.893 381.87 206.969C383.275 204.046 384.003 200.843 384 197.6C384 194.763 383.441 191.955 382.356 189.334C381.27 186.713 379.679 184.332 377.673 182.326C375.668 180.321 373.287 178.73 370.666 177.644C368.045 176.559 365.237 176 362.4 176H352V180.368C352.002 200.507 349.21 220.548 343.704 239.92L344 240Z" fill="#F5CF88"/>
<path d="M352 176L373.688 116.36C380.305 98.1659 379.608 78.1148 371.744 60.424C365.868 47.2017 356.283 35.9673 344.152 28.0824C332.02 20.1975 317.861 16.0005 303.392 16H235.472C186.152 16.0024 137.825 29.8624 96 56L115.288 62.4C118.985 63.625 122.392 65.5937 125.299 68.1849C128.206 70.7761 130.553 73.935 132.193 77.4671C133.834 80.9992 134.734 84.8297 134.838 88.7228C134.942 92.6158 134.249 96.4891 132.8 100.104C131.305 103.846 130.618 107.862 130.785 111.888C130.952 115.914 131.968 119.859 133.768 123.464L160 176V152L213.496 116.336C225.561 108.29 239.738 103.997 254.24 104C270.918 104.001 287.099 98.3242 300.12 87.904L320 72L338.568 99.848C347.328 112.99 352.001 128.43 352 144.224V176Z" fill="#976947"/>
<path d="M192 176H240V208C240 212.243 238.314 216.313 235.314 219.314C232.313 222.314 228.243 224 224 224H208C203.757 224 199.687 222.314 196.686 219.314C193.686 216.313 192 212.243 192 208V176ZM272 176H320V208C320 212.243 318.314 216.313 315.314 219.314C312.313 222.314 308.243 224 304 224H288C283.757 224 279.687 222.314 276.686 219.314C273.686 216.313 272 212.243 272 208V176Z" fill="#F2F0EB"/>
<path d="M240 184H272V200H240V184Z" fill="#A8B0BC"/>
<path d="M80 496V328C80 319.513 83.3714 311.374 89.3726 305.373C95.3737 299.371 103.513 296 112 296H400C408.487 296 416.626 299.371 422.627 305.373C428.629 311.374 432 319.513 432 328V496" fill="#D5CEC2"/>
<path d="M256 456C269.255 456 280 445.255 280 432C280 418.745 269.255 408 256 408C242.745 408 232 418.745 232 432C232 445.255 242.745 456 256 456Z" fill="#E7E4DD"/>
<path d="M202.336 389.656L170.336 357.656C169.592 356.913 169.002 356.031 168.6 355.059C168.197 354.088 167.99 353.047 167.99 351.996C167.99 350.945 168.197 349.904 168.6 348.932C169.002 347.961 169.592 347.079 170.336 346.336L202.336 314.336L213.656 325.656L187.312 352L213.656 378.336L202.336 389.656ZM309.656 389.656L298.336 378.336L324.68 352L298.336 325.656L309.656 314.336L341.656 346.336C342.4 347.079 342.99 347.961 343.393 348.932C343.795 349.904 344.002 350.945 344.002 351.996C344.002 353.047 343.795 354.088 343.393 355.059C342.99 356.031 342.4 356.913 341.656 357.656L309.656 389.656ZM225.592 379.256L273.592 315.256L286.392 324.856L238.392 388.856L225.592 379.256Z" fill="#C66B60"/>
<path d="M504 456C503.971 435.48 497.881 415.427 486.494 398.356C475.108 381.286 458.933 367.959 440 360.048V328C439.989 317.395 435.772 307.227 428.273 299.727C420.773 292.228 410.605 288.011 400 288H332.656C340.056 274.34 346.023 259.951 350.464 245.064L380.864 220.728C385.589 216.956 389.044 211.824 390.761 206.027C392.478 200.23 392.376 194.045 390.468 188.307C388.56 182.57 384.938 177.556 380.09 173.941C375.243 170.327 369.403 168.287 363.36 168.096L381.184 119.088C385.732 106.582 387.199 93.164 385.459 79.9708C383.72 66.7777 378.826 54.1982 371.192 43.2982C363.559 32.3982 353.41 23.4989 341.606 17.3543C329.802 11.2098 316.691 8.00106 303.384 8.00001H235.472C184.649 7.98559 134.846 22.2653 91.752 49.208C90.4573 50.01 89.4185 51.1649 88.7575 52.5369C88.0965 53.9089 87.8409 55.4411 88.0207 56.9534C88.2005 58.4657 88.8082 59.8952 89.7725 61.074C90.7367 62.2528 92.0174 63.1319 93.464 63.608L112.752 70.008C115.407 70.8945 117.853 72.3139 119.94 74.1794C122.027 76.0448 123.711 78.3168 124.888 80.8562C126.066 83.3955 126.712 86.1486 126.788 88.9467C126.863 91.7447 126.367 94.5287 125.328 97.128C123.414 101.918 122.536 107.06 122.751 112.214C122.966 117.368 124.27 122.418 126.576 127.032L147.2 168.24C141.298 168.708 135.673 170.94 131.057 174.647C126.44 178.353 123.045 183.363 121.312 189.024C119.58 194.685 119.59 200.737 121.342 206.392C123.094 212.048 126.507 217.045 131.136 220.736L161.536 245.064C165.977 259.951 171.945 274.34 179.344 288H112C101.395 288.011 91.2266 292.228 83.7274 299.727C76.2283 307.227 72.0106 317.395 72 328V360.04C53.0653 367.951 36.8895 381.279 25.5033 398.352C14.1171 415.424 8.02784 435.479 8 456V496C8 498.122 8.84285 500.157 10.3431 501.657C11.8434 503.157 13.8783 504 16 504H496C498.122 504 500.157 503.157 501.657 501.657C503.157 500.157 504 498.122 504 496V456ZM320 168H272C269.878 168 267.843 168.843 266.343 170.343C264.843 171.843 264 173.878 264 176V184H248V176C248 173.878 247.157 171.843 245.657 170.343C244.157 168.843 242.122 168 240 168H168V156.28L217.936 122.984C228.68 115.809 241.313 111.986 254.232 112C272.723 111.977 290.659 105.685 305.112 94.152L318.176 83.688L331.904 104.28C339.804 116.1 344.014 130 344 144.216V168H320ZM312 184V208C312 210.122 311.157 212.157 309.657 213.657C308.157 215.157 306.122 216 304 216H288C285.878 216 283.843 215.157 282.343 213.657C280.843 212.157 280 210.122 280 208V184H312ZM232 184V208C232 210.122 231.157 212.157 229.657 213.657C228.157 215.157 226.122 216 224 216H208C205.878 216 203.843 215.157 202.343 213.657C200.843 212.157 200 210.122 200 208V184H232ZM376 197.6C376.006 199.642 375.55 201.66 374.666 203.501C373.782 205.342 372.493 206.959 370.896 208.232L356.392 219.832C358.504 208 359.665 196.018 359.864 184H362.4C364.186 184 365.954 184.352 367.604 185.035C369.255 185.719 370.754 186.72 372.017 187.983C373.28 189.246 374.281 190.745 374.965 192.396C375.648 194.046 376 195.814 376 197.6ZM140.184 103.064C142.031 98.4392 142.914 93.4857 142.778 88.5074C142.642 83.5291 141.489 78.6313 139.392 74.1145C137.294 69.5977 134.295 65.5573 130.579 62.2415C126.864 58.9256 122.509 56.4042 117.784 54.832L115.384 54.032C152.338 34.3063 193.583 23.9915 235.472 24H303.384C314.119 23.9989 324.696 26.5853 334.219 31.54C343.742 36.4947 351.93 43.6717 358.091 52.4631C364.251 61.2545 368.201 71.4012 369.607 82.0435C371.014 92.6859 369.834 103.51 366.168 113.6L359.208 132.728C357.473 119.368 352.685 106.588 345.216 95.376L326.648 67.552C326.033 66.6305 325.233 65.8468 324.3 65.2505C323.366 64.6542 322.319 64.2584 321.224 64.088C320.128 63.9216 319.01 63.9828 317.939 64.2677C316.869 64.5526 315.868 65.0552 315 65.744L295.12 81.656C283.504 90.9222 269.091 95.9785 254.232 96C238.152 95.9832 222.429 100.742 209.056 109.672L155.56 145.336C155.062 145.673 154.606 146.068 154.2 146.512L140.88 119.88C139.586 117.284 138.855 114.444 138.735 111.546C138.615 108.648 139.109 105.758 140.184 103.064ZM141.104 208.24C138.895 206.482 137.289 204.08 136.507 201.367C135.725 198.654 135.806 195.766 136.74 193.102C137.674 190.437 139.414 188.13 141.718 186.499C144.022 184.868 146.777 183.995 149.6 184H152.112C152.322 196.02 153.485 208.004 155.592 219.84L141.104 208.24ZM168.12 184H184V208C184 214.365 186.529 220.47 191.029 224.971C195.53 229.471 201.635 232 208 232H224C230.365 232 236.47 229.471 240.971 224.971C245.471 220.47 248 214.365 248 208V200H264V208C264 214.365 266.529 220.47 271.029 224.971C275.53 229.471 281.635 232 288 232H304C310.365 232 316.47 229.471 320.971 224.971C325.471 220.47 328 214.365 328 208V184H343.872C343.247 220.666 333.013 256.527 314.192 288H197.808C178.984 256.527 168.748 220.667 168.12 184ZM112 304H400C406.365 304 412.47 306.529 416.971 311.029C421.471 315.53 424 321.635 424 328V488H88V328C88 321.635 90.5286 315.53 95.0294 311.029C99.5303 306.529 105.635 304 112 304ZM24 456C24.0244 439.79 28.5177 423.902 36.986 410.08C45.4543 396.258 57.5696 385.039 72 377.656V488H24V456ZM488 488H440V377.648C454.431 385.033 466.547 396.253 475.015 410.076C483.483 423.899 487.976 439.789 488 456V488Z" fill="black"/>
<path d="M256 464C262.329 464 268.516 462.123 273.778 458.607C279.041 455.091 283.142 450.093 285.564 444.246C287.986 438.399 288.62 431.964 287.385 425.757C286.15 419.55 283.103 413.848 278.627 409.373C274.152 404.897 268.45 401.85 262.243 400.615C256.036 399.38 249.601 400.014 243.754 402.436C237.907 404.858 232.909 408.959 229.393 414.222C225.877 419.484 224 425.671 224 432C224 440.487 227.371 448.626 233.373 454.627C239.374 460.629 247.513 464 256 464ZM256 416C259.165 416 262.258 416.938 264.889 418.696C267.52 420.455 269.571 422.953 270.782 425.877C271.993 428.801 272.31 432.018 271.693 435.121C271.075 438.225 269.551 441.076 267.314 443.314C265.076 445.551 262.225 447.075 259.122 447.693C256.018 448.31 252.801 447.993 249.877 446.782C246.953 445.571 244.455 443.52 242.697 440.889C240.938 438.258 240 435.164 240 432C240 427.756 241.686 423.687 244.686 420.686C247.687 417.686 251.757 416 256 416ZM202.336 389.656L213.656 378.336L187.312 352L213.656 325.656L202.336 314.336L170.336 346.336C169.592 347.079 169.002 347.961 168.6 348.932C168.197 349.904 167.99 350.945 167.99 351.996C167.99 353.047 168.197 354.088 168.6 355.059C169.002 356.031 169.592 356.913 170.336 357.656L202.336 389.656ZM309.656 389.656L341.656 357.656C342.4 356.913 342.99 356.031 343.393 355.059C343.795 354.088 344.002 353.047 344.002 351.996C344.002 350.945 343.795 349.904 343.393 348.932C342.99 347.961 342.4 347.079 341.656 346.336L309.656 314.336L298.336 325.656L324.68 352L298.336 378.336L309.656 389.656ZM225.592 379.256L273.592 315.256L286.392 324.856L238.392 388.856L225.592 379.256Z" fill="black"/>
</svg>
