<svg width="512" height="512" viewBox="0 0 512 512" fill="none" xmlns="http://www.w3.org/2000/svg">
<g clip-path="url(#clip0_515_12)">
<path d="M338.149 0H72.8046C65.4172 0 59.4286 5.98857 59.4286 17.6091V502.857C59.4286 506.011 65.4172 512 72.8046 512H439.195C446.583 512 452.571 506.011 452.571 502.857V118.656C452.571 112.293 451.721 110.245 450.222 108.736L343.835 2.34971C342.324 0.847306 340.28 0.00279587 338.149 0Z" fill="#E9E9E0"/>
<path d="M342.857 1.38055V109.714H451.191L342.857 1.38055Z" fill="#D9D7CA"/>
<path d="M439.195 512H72.8046C69.2571 512 65.8548 510.591 63.3463 508.082C60.8378 505.574 59.4286 502.172 59.4286 498.624V356.571H452.571V498.624C452.571 506.011 446.583 512 439.195 512Z" fill="#0096E6"/>
<path d="M215.589 475.2C212.169 478.528 208.293 481.033 203.968 482.697C199.643 484.361 194.971 485.193 189.97 485.193C184.466 485.193 179.41 484.197 174.784 482.194C170.158 480.192 166.117 477.239 162.661 473.317C159.205 469.394 156.489 464.485 154.533 458.569C152.576 452.654 151.598 445.815 151.598 438.071C151.598 430.327 152.576 423.506 154.533 417.637C156.489 411.758 159.205 406.866 162.661 402.953C166.117 399.04 170.176 396.059 174.848 394.011C179.52 391.963 184.558 390.949 189.97 390.949C194.971 390.949 199.643 391.781 203.968 393.445C208.293 395.109 212.169 397.614 215.589 400.942L205.211 410.194C203.127 407.771 200.823 406.025 198.272 404.946C195.721 403.867 193.088 403.319 190.336 403.319C187.255 403.319 184.32 403.895 181.522 405.065C178.725 406.235 176.229 408.21 174.025 410.999C171.822 413.787 170.085 417.39 168.841 421.815C167.598 426.24 166.921 431.643 166.839 438.062C166.921 444.315 167.57 449.646 168.777 454.062C169.984 458.478 171.648 462.08 173.778 464.878C175.909 467.675 178.322 469.705 181.029 471.003C183.735 472.302 186.587 472.942 189.595 472.942C192.603 472.942 195.41 472.393 198.034 471.314C200.658 470.235 203.054 468.48 205.221 466.066L215.589 475.2ZM289.216 459.319C289.216 462.647 288.53 465.883 287.15 469.01C285.769 472.137 283.84 474.889 281.335 477.257C278.83 479.625 275.758 481.527 272.082 482.944C268.407 484.361 264.256 485.065 259.584 485.065C257.582 485.065 255.525 484.955 253.394 484.754C251.264 484.553 249.125 484.187 246.958 483.694C244.791 483.2 242.725 482.505 240.768 481.627C238.811 480.75 237.129 479.689 235.703 478.437L238.327 467.685C239.497 468.352 240.969 469.001 242.761 469.623C244.553 470.245 246.4 470.83 248.32 471.369C250.24 471.909 252.151 472.347 254.071 472.686C255.991 473.024 257.774 473.189 259.447 473.189C264.53 473.189 268.425 472 271.131 469.623C273.838 467.246 275.191 463.726 275.191 459.063C275.191 456.229 274.24 453.815 272.32 451.813C270.4 449.81 268.005 448 265.134 446.373C262.263 444.745 259.154 443.127 255.817 441.499C252.48 439.872 249.362 437.952 246.446 435.749C243.529 433.545 241.115 430.939 239.195 427.941C237.275 424.942 236.325 421.193 236.325 416.695C236.325 412.617 237.074 408.987 238.574 405.824C240.073 402.661 242.094 399.963 244.635 397.76C247.177 395.557 250.139 393.865 253.513 392.695C256.887 391.525 260.453 390.949 264.201 390.949C268.032 390.949 271.909 391.305 275.822 392.009C279.735 392.713 282.898 393.865 285.321 395.447C284.818 396.526 284.242 397.714 283.575 399.013L281.701 402.633C281.125 403.758 280.622 404.699 280.201 405.449C279.781 406.199 279.534 406.619 279.451 406.702C278.949 406.455 278.391 406.126 277.76 405.705C277.129 405.285 276.242 404.873 275.072 404.453C273.902 404.032 272.366 403.749 270.446 403.575C268.526 403.401 266.066 403.447 263.067 403.703C261.394 403.877 259.822 404.343 258.313 405.138C256.805 405.934 255.479 406.903 254.309 408.073C253.138 409.243 252.224 410.551 251.557 412.014C250.889 413.477 250.56 414.875 250.56 416.201C250.56 419.529 251.511 422.217 253.431 424.265C255.351 426.313 257.728 428.096 260.553 429.641C263.378 431.186 266.469 432.686 269.806 434.139C273.143 435.593 276.242 437.376 279.122 439.451C282.002 441.527 284.389 444.142 286.309 447.259C288.229 450.377 289.216 454.4 289.216 459.319ZM356.965 459.319C356.965 462.647 356.279 465.883 354.898 469.01C353.518 472.137 351.589 474.889 349.083 477.257C346.578 479.625 343.506 481.527 339.831 482.944C336.155 484.361 332.005 485.065 327.333 485.065C325.33 485.065 323.273 484.955 321.143 484.754C319.013 484.553 316.873 484.187 314.706 483.694C312.539 483.2 310.473 482.505 308.517 481.627C306.56 480.75 304.878 479.689 303.451 478.437L306.075 467.685C307.246 468.352 308.718 469.001 310.51 469.623C312.302 470.245 314.149 470.83 316.069 471.369C317.989 471.909 319.899 472.347 321.819 472.686C323.739 473.024 325.522 473.189 327.195 473.189C332.279 473.189 336.174 472 338.88 469.623C341.586 467.246 342.939 463.726 342.939 459.063C342.939 456.229 341.989 453.815 340.069 451.813C338.149 449.81 335.753 448 332.882 446.373C330.011 444.745 326.903 443.127 323.566 441.499C320.229 439.872 317.111 437.952 314.194 435.749C311.278 433.545 308.864 430.939 306.944 427.941C305.024 424.942 304.073 421.193 304.073 416.695C304.073 412.617 304.823 408.987 306.322 405.824C307.822 402.661 309.842 399.963 312.384 397.76C314.926 395.557 317.888 393.865 321.262 392.695C324.635 391.525 328.201 390.949 331.95 390.949C335.781 390.949 339.657 391.305 343.57 392.009C347.483 392.713 350.647 393.865 353.07 395.447C352.567 396.526 351.991 397.714 351.323 399.013L349.449 402.633C348.873 403.758 348.37 404.699 347.95 405.449C347.529 406.199 347.282 406.619 347.2 406.702C346.697 406.455 346.139 406.126 345.509 405.705C344.878 405.285 343.991 404.873 342.821 404.453C341.65 404.032 340.114 403.749 338.194 403.575C336.274 403.401 333.815 403.447 330.816 403.703C329.143 403.877 327.57 404.343 326.062 405.138C324.553 405.934 323.227 406.903 322.057 408.073C320.887 409.243 319.973 410.551 319.305 412.014C318.638 413.477 318.309 414.875 318.309 416.201C318.309 419.529 319.259 422.217 321.179 424.265C323.099 426.313 325.477 428.096 328.302 429.641C331.127 431.186 334.217 432.686 337.554 434.139C340.891 435.593 343.991 437.376 346.871 439.451C349.751 441.527 352.137 444.142 354.057 447.259C355.977 450.377 356.965 454.4 356.965 459.319Z" fill="white"/>
<path d="M178.286 173.714V137.143C178.286 132.105 182.382 128 187.429 128C189.853 128 192.179 127.037 193.894 125.322C195.608 123.608 196.571 121.282 196.571 118.857C196.571 116.432 195.608 114.107 193.894 112.392C192.179 110.678 189.853 109.714 187.429 109.714C172.306 109.714 160 122.021 160 137.143V173.714C160 183.799 151.799 192 141.714 192C139.289 192 136.964 192.963 135.249 194.678C133.535 196.393 132.571 198.718 132.571 201.143C132.571 203.568 133.535 205.893 135.249 207.608C136.964 209.322 139.289 210.286 141.714 210.286C151.799 210.286 160 218.487 160 228.571V265.143C160 280.265 172.306 292.571 187.429 292.571C189.853 292.571 192.179 291.608 193.894 289.894C195.608 288.179 196.571 285.853 196.571 283.429C196.571 281.004 195.608 278.678 193.894 276.964C192.179 275.249 189.853 274.286 187.429 274.286C182.382 274.286 178.286 270.181 178.286 265.143V228.571C178.286 217.6 173.33 207.854 165.65 201.143C169.6 197.744 172.772 193.536 174.952 188.803C177.132 184.071 178.269 178.925 178.286 173.714ZM361.143 192C351.058 192 342.857 183.799 342.857 173.714V137.143C342.857 122.021 330.551 109.714 315.429 109.714C313.004 109.714 310.678 110.678 308.964 112.392C307.249 114.107 306.286 116.432 306.286 118.857C306.286 121.282 307.249 123.608 308.964 125.322C310.678 127.037 313.004 128 315.429 128C320.475 128 324.571 132.105 324.571 137.143V173.714C324.571 184.686 329.527 194.432 337.207 201.143C333.258 204.542 330.085 208.75 327.905 213.483C325.725 218.215 324.588 223.361 324.571 228.571V265.143C324.571 270.181 320.475 274.286 315.429 274.286C313.004 274.286 310.678 275.249 308.964 276.964C307.249 278.678 306.286 281.004 306.286 283.429C306.286 285.853 307.249 288.179 308.964 289.894C310.678 291.608 313.004 292.571 315.429 292.571C330.551 292.571 342.857 280.265 342.857 265.143V228.571C342.857 218.487 351.058 210.286 361.143 210.286C363.568 210.286 365.893 209.322 367.608 207.608C369.322 205.893 370.286 203.568 370.286 201.143C370.286 198.718 369.322 196.393 367.608 194.678C365.893 192.963 363.568 192 361.143 192Z" fill="#0096E6"/>
</g>
<defs>
<clipPath id="clip0_515_12">
<rect width="512" height="512" fill="white"/>
</clipPath>
</defs>
</svg>
