<svg width="512" height="512" viewBox="0 0 512 512" fill="none" xmlns="http://www.w3.org/2000/svg">
<path d="M0 0L31.8 448.102L226.2 512L420.598 448.102L452.398 0H0Z" fill="#FF7816"/>
<path d="M452.398 0L420.598 448.102L226.199 512V0H452.398Z" fill="#FF4B00"/>
<path d="M367.5 136H145.2L150.598 211H362.102L349.199 392.598L226.199 433.699L103.199 392.598L99 332H159L160.2 348.5L226.2 370.398L292.2 348.5L297.598 271H94.5L80.7 76H371.7L367.5 136Z" fill="#ECECF1"/>
<path d="M362.102 211L349.199 392.598L226.199 433.699V370.399L292.199 348.5L297.598 271H226.199V211H362.102ZM371.7 76L367.5 136H226.2V76H371.7Z" fill="#E2E2E7"/>
</svg>
