<svg width="512" height="512" viewBox="0 0 512 512" fill="none" xmlns="http://www.w3.org/2000/svg">
<g clip-path="url(#clip0_515_19)">
<path d="M37.1542 125.218C-8.17482 190.379 -2.52576 275.132 32.0854 344.371C32.9046 346.01 33.775 347.631 34.6284 349.269C35.1574 350.31 35.6694 351.369 36.2326 352.41L37.2566 354.202C37.8369 355.294 38.4513 356.335 39.0657 357.427C40.1409 359.322 41.2332 361.199 42.3596 363.093L44.2369 366.199C45.4828 368.196 46.7457 370.193 48.094 372.207C48.623 373.043 49.1692 373.914 49.7153 374.733C51.5244 377.395 53.3676 380.092 55.262 382.737C55.3302 382.805 55.3644 382.908 55.4326 382.942L56.3713 384.205C58.6056 387.33 60.9275 390.392 63.3345 393.387C64.8705 395.315 66.4406 397.227 68.0278 399.155C68.6081 399.855 69.1884 400.589 69.8028 401.289C71.9361 403.78 74.1206 406.289 76.3393 408.73L76.4758 408.866C76.5782 409.003 76.6465 409.037 76.7318 409.173C78.8822 411.546 81.118 413.833 83.3537 416.137C84.0534 416.87 84.7532 417.57 85.487 418.27C87.2278 420.045 88.9857 421.769 90.7777 423.475L92.9452 425.54C95.3345 427.776 97.7238 429.978 100.199 432.145C100.233 432.179 100.267 432.213 100.318 432.213C100.728 432.606 101.171 432.947 101.564 433.306C103.731 435.166 105.933 437.043 108.169 438.869L110.899 441.037C113.681 443.245 116.486 445.424 119.313 447.573C121.344 449.075 123.392 450.543 125.457 451.977C126.225 452.54 126.959 453.069 127.71 453.581C127.932 453.717 128.12 453.888 128.324 454.007C130.287 455.373 132.301 456.67 134.332 457.967L136.892 459.708C139.998 461.636 143.104 463.582 146.261 465.442L148.856 466.91C151.194 468.241 153.515 469.538 155.887 470.835C157.15 471.535 158.481 472.166 159.778 472.832C161.468 473.702 163.106 474.607 164.813 475.426C165.188 475.631 165.598 475.819 165.973 475.989L168.021 476.996C170.65 478.259 173.329 479.488 176.009 480.7C176.572 480.973 177.118 481.195 177.698 481.434C180.77 482.799 183.859 484.096 187 485.308C187.751 485.649 188.501 485.905 189.269 486.212C192.171 487.339 195.106 488.448 198.042 489.472C198.4 489.609 198.776 489.711 199.134 489.83C202.36 490.957 205.636 492.032 208.93 493.039C209.715 493.278 210.5 493.534 211.303 493.739C214.631 494.78 217.941 495.974 221.406 496.606C440.644 536.576 504.286 364.868 504.286 364.868C450.833 434.534 355.891 452.932 265.933 432.469C262.537 431.701 259.226 430.643 255.898 429.636C251.813 428.443 247.761 427.14 243.746 425.728C243.32 425.557 242.859 425.421 242.415 425.267C239.548 424.226 236.715 423.202 233.882 422.093C233.097 421.751 232.295 421.461 231.509 421.154C228.413 419.934 225.34 418.654 222.293 417.314L220.467 416.512C217.112 414.976 213.772 413.406 210.449 411.802C208.442 410.788 206.439 409.764 204.442 408.73C203.111 408.03 201.762 407.364 200.448 406.63C198.018 405.342 195.616 403.999 193.246 402.603C192.427 402.169 191.614 401.725 190.805 401.271C184.485 397.521 178.292 393.559 172.237 389.393C171.503 388.898 170.803 388.352 170.087 387.891C167.973 386.386 165.874 384.861 163.789 383.317C162.844 382.629 161.916 381.918 161.007 381.184C159.096 379.75 157.184 378.283 155.307 376.747L152.781 374.716C150.115 372.554 147.492 370.341 144.913 368.077C141.655 365.238 138.462 362.325 135.339 359.339C133.53 357.598 131.738 355.874 129.98 354.065L127.881 352C125.662 349.696 123.46 347.392 121.31 345.037L120.986 344.695C118.721 342.204 116.502 339.672 114.33 337.101L112.572 335.036C110.937 333.086 109.338 331.105 107.776 329.097C107.182 328.381 106.596 327.658 106.018 326.929C104.142 324.496 102.299 322.038 100.489 319.556C50.5516 251.443 32.5974 157.508 72.5334 80.3499" fill="white"/>
<path d="M177.869 70.3147C145.084 117.521 146.876 180.651 172.442 230.554C176.725 238.916 181.538 247.023 186.948 254.754C191.847 261.786 197.308 270.182 203.81 275.797C206.183 278.392 208.64 280.969 211.183 283.426C214.242 286.481 217.39 289.446 220.621 292.318C220.74 292.42 220.826 292.523 220.945 292.591L221.013 292.659C223.847 295.151 226.799 297.557 229.786 299.93C230.451 300.425 231.117 300.971 231.783 301.5C234.786 303.804 237.824 306.039 240.947 308.207L241.22 308.412C242.62 309.385 244.019 310.238 245.419 311.177C246.084 311.603 246.716 312.081 247.399 312.474C249.634 313.907 251.904 315.307 254.191 316.638L255.164 317.201C257.144 318.328 259.157 319.471 261.188 320.563C261.888 320.956 262.622 321.297 263.322 321.655L267.537 323.857C267.759 323.959 267.947 324.062 268.169 324.13C271.053 325.564 273.971 326.929 276.958 328.226L278.887 329.028C282.268 330.478 285.695 331.821 289.161 333.056C292.328 334.25 295.533 335.342 298.769 336.333C301.927 337.306 305.033 338.569 308.327 339.098C477.594 367.138 516.659 236.851 516.659 236.851C481.434 287.539 413.218 311.774 340.446 292.864C337.226 292.004 334.022 291.083 330.837 290.099L327.97 289.161C325.71 288.435 323.468 287.655 321.246 286.822L318.225 285.73C315.793 284.802 313.381 283.823 310.989 282.795L309.06 281.993C306.079 280.692 303.131 279.315 300.22 277.862C298.718 277.163 297.25 276.395 295.783 275.627L293.24 274.296C291.362 273.289 289.485 272.23 287.642 271.172C287.198 270.899 286.737 270.677 286.293 270.421C284.007 269.09 281.754 267.691 279.535 266.291C278.835 265.83 278.17 265.353 277.47 264.926C276.002 263.953 274.535 262.997 273.084 261.99C269.982 259.839 266.932 257.614 263.936 255.317L261.871 253.679C230.008 228.506 204.749 194.15 192.734 155.153C180.173 114.722 182.869 69.359 204.664 32.512" fill="white"/>
<path d="M296.192 29.3205C276.873 57.7536 274.978 93.0816 288.393 124.484C302.524 157.85 331.503 183.979 365.329 196.386C366.729 196.915 368.128 197.393 369.527 197.854L371.388 198.451C373.367 199.049 375.347 199.782 377.429 200.192C470.886 218.266 496.213 152.218 502.972 142.49C480.734 174.49 443.46 182.153 397.653 171.025C393.912 170.079 390.221 168.945 386.594 167.629C373.596 162.997 361.378 156.413 350.362 148.105C309.402 117.009 283.921 57.7024 310.665 9.40375" fill="white"/>
</g>
<defs>
<clipPath id="clip0_515_19">
<rect width="512" height="512" fill="white"/>
</clipPath>
</defs>
</svg>
