<svg width="512" height="512" viewBox="0 0 512 512" fill="none" xmlns="http://www.w3.org/2000/svg">
<path d="M90.667 6.40002H421.334C471.467 6.40002 512 46.933 512 97.067V414.934C512 465.067 471.467 505.601 421.333 505.601H90.667C40.533 505.6 0 465.067 0 414.933V97.067C0 46.933 40.533 6.40002 90.667 6.40002Z" fill="#001834"/>
<path d="M115.2 356.48V136.96C115.2 135.467 115.84 134.613 117.333 134.613C120.96 134.613 124.373 134.613 129.28 134.4C134.4 134.187 139.733 134.187 145.493 133.973C151.253 133.759 157.44 133.76 164.053 133.546C170.666 133.333 177.066 133.333 183.466 133.333C200.959 133.333 215.466 135.466 227.413 139.946C238.08 143.573 247.893 149.546 256 157.439C262.827 164.266 268.16 172.586 271.573 181.759C274.773 190.719 276.48 199.892 276.48 209.492C276.48 227.839 272.213 242.985 263.68 254.932C255.147 266.879 243.2 275.839 229.333 280.959C214.826 286.292 198.826 288.212 181.333 288.212C176.213 288.212 172.8 288.212 170.666 287.999C168.533 287.786 165.546 287.786 161.493 287.786V356.266C161.706 357.759 160.64 359.039 159.146 359.253H117.76C116.053 359.253 115.2 358.4 115.2 356.48ZM161.707 175.787V247.467C164.694 247.68 167.467 247.894 170.027 247.894H181.334C196.065 247.894 213.078 244.432 223.36 232.748C232.209 222.692 232.234 202.75 225.067 191.788C216.559 178.775 199.545 175.005 184.96 175.361C179.413 175.361 174.507 175.361 170.453 175.574C166.187 175.36 163.2 175.573 161.707 175.787ZM409.6 234.453C403.2 231.04 396.373 228.693 389.12 227.2C381.227 225.493 373.333 224.427 365.227 224.427C360.96 224.214 356.48 224.854 352.427 225.92C349.654 226.56 347.307 228.053 345.814 230.187C344.747 231.894 344.107 234.027 344.107 235.947C344.107 237.867 344.96 239.787 346.24 241.494C348.16 243.841 350.72 245.761 353.493 247.254C358.4 249.814 363.52 252.161 368.64 254.294C380.16 258.134 391.253 263.467 401.493 269.867C408.533 274.347 414.293 280.32 418.346 287.574C421.759 294.401 423.466 301.867 423.253 309.547C423.466 319.574 420.48 329.6 414.933 337.92C408.96 346.453 400.64 353.067 391.04 356.907C380.587 361.387 367.787 363.734 352.427 363.734C342.614 363.734 333.014 362.881 323.414 360.961C315.89 359.661 308.573 357.365 301.654 354.134C300.161 353.281 299.094 351.787 299.307 350.081V312.961C299.307 312.321 299.52 311.468 300.16 311.041C300.8 310.614 301.44 310.828 302.08 311.254C310.4 316.161 319.147 319.574 328.533 321.707C336.64 323.84 345.173 324.907 353.706 324.907C361.813 324.907 367.573 323.84 371.413 321.92C374.826 320.427 377.173 316.8 377.173 312.96C377.173 309.973 375.466 307.2 372.053 304.427C368.64 301.654 361.6 298.454 351.146 294.4C340.266 290.56 330.239 285.44 320.853 279.04C314.24 274.347 308.693 268.16 304.64 260.907C301.227 254.08 299.52 246.614 299.733 239.147C299.733 229.974 302.293 221.227 306.986 213.334C312.319 204.801 320.213 197.974 329.386 193.707C339.413 188.587 351.999 186.24 367.146 186.24C375.893 186.24 384.853 186.88 393.599 188.16C399.999 189.013 406.186 190.72 411.946 193.067C412.799 193.28 413.653 194.134 414.079 194.987C414.292 195.84 414.506 196.694 414.506 197.547V232.32C414.506 233.173 414.079 234.027 413.439 234.453C411.52 234.88 410.453 234.88 409.6 234.453Z" fill="#00A9FF"/>
</svg>
