<svg width="512" height="512" viewBox="0 0 512 512" fill="none" xmlns="http://www.w3.org/2000/svg">
<path d="M328.758 198.737C353.011 164.716 417.011 91.2842 456.421 105.432C465.179 107.789 471.916 114.863 473.937 123.958C479.327 147.2 460.127 162.021 424.758 220.295C380.969 291.368 367.495 338.863 347.958 358.063C309.895 400.842 232.758 381.979 241.853 265.768C195.705 340.884 184.59 432.168 106.779 416.674C25.2634 394.779 29.3055 202.779 48.1686 153.263C49.8528 147.2 52.2107 141.137 55.2423 135.411C74.4423 98.0211 119.242 97.6842 138.442 119.916C157.642 142.147 152.253 189.305 149.558 219.958C169.769 184.926 204.8 134.737 237.137 109.811C287.663 72.421 345.937 96.6737 328.758 198.737Z" fill="#ccc"/>
</svg>
